<?xml version="1.0" encoding="iso-8859-1"?>
<!-- Generator: Adobe Illustrator 19.0.0, SVG Export Plug-In . SVG Version: 6.00 Build 0)  -->
<svg version="1.1" id="Capa_1" xmlns="http://www.w3.org/2000/svg" xmlns:xlink="http://www.w3.org/1999/xlink" x="0px" y="0px"
	 viewBox="0 0 490.031 490.031" style="enable-background:new 0 0 490.031 490.031;" xml:space="preserve">
<g>
	<path d="M350.722,178.356c3.688,0.299,7.377-1.544,9.385-4.744l57.477-91.329c4.92-5.837-1.361-19.866-13.413-14.454L382.61,79.242
		l-34.669-59.998C341.521,8.129,329.635,1.221,316.93,1.221H192.054c-12.709,0-24.592,6.908-31.006,18.023L102.14,121.198
		c-2.751,4.756-1.241,10.836,3.418,13.757l96.562,60.496c7.42,4.272,13.44-1.308,14.464-3.927l37.904-72.539l11.503,22.021
		l-20.265,10.725c-11.048,7.332-3.692,18.958,4.027,19.199L350.722,178.356z M263.535,92.221c-3.523-6.749-14.578-6.738-18.093,0
		l-41.836,80.064l-78.864-49.402l53.983-93.432c2.781-4.824,7.89-7.816,13.328-7.816H316.93c5.438,0,10.551,3.001,13.337,7.816
		l39.589,68.521c2.199,3.809,6.499,5.713,10.622,4.944l-34.381,54.637l-59.854-4.406c3.648-3.011,4.82-8.254,2.547-12.601
		L263.535,92.221z"/>
	<path d="M219.794,316.739l-81.739,4.169l13.132-21.089l19.528,12.015c11.926,5.797,18.208-6.443,14.497-13.216l-44.86-90.76
		c-1.615-3.329-5.076-5.571-8.852-5.677l-107.864-3.154c-7.526-1.275-16.425,11.257-5.643,18.893l20.779,12.782L4.68,291.029
		c-6.317,11.175-6.234,24.923,0.215,35.868l63.396,107.588c6.452,10.95,18.436,17.68,31.269,17.563l117.744-1.007
		c5.494-0.044,9.966-4.432,10.117-9.929l3.099-113.906C230.434,318.647,222.57,316.292,219.794,316.739z M207.282,430.713
		L99.38,431.637c-5.569,0.053-10.739-2.83-13.5-7.516L22.484,316.533c-2.76-4.685-2.771-10.614-0.037-15.458l38.936-68.894
		c2.165-3.827,1.622-8.499-1.133-11.661l64.526,1.884l26.59,53.805c-4.446-1.615-9.558,0.037-12.149,4.202l-28.814,46.291
		c-4.026,6.462,1.595,15.981,9.185,15.588l90.218-4.602L207.282,430.713z"/>
	<path d="M485.69,297.719l-55.913-103.626c-2.607-4.836-8.576-6.739-13.506-4.304L314.12,240.278
		c-7.529,4.076-5.935,12.129-4.242,14.374l41.884,70.317l-24.782-1.755l1.496-22.879c-0.448-13.253-14.205-13.087-18.459-6.641
		l-59.276,82.073c-2.189,2.983-2.554,7.091-0.882,10.479l47.617,96.836c2.39,7.25,17.628,9.261,19.341-3.84l1.59-24.344
		l69.267,1.948c12.831,0.362,24.947-6.135,31.61-16.951l65.492-106.325C491.44,322.75,491.79,309.01,485.69,297.719z
		 M467.393,322.864L401.9,429.19c-2.852,4.63-8.089,7.41-13.649,7.257l-79.103-2.23c-4.396-0.125-8.272,2.538-9.781,6.451
		l-28.488-57.928l35.143-48.651c0.65,4.686,4.5,8.433,9.393,8.777l54.39,3.842c7.595,0.539,13.384-8.878,9.489-15.405l-46.228-77.61
		l83.423-41.238l51.24,94.964C470.377,312.317,470.245,318.235,467.393,322.864z"/>
</g>
<g>
</g>
<g>
</g>
<g>
</g>
<g>
</g>
<g>
</g>
<g>
</g>
<g>
</g>
<g>
</g>
<g>
</g>
<g>
</g>
<g>
</g>
<g>
</g>
<g>
</g>
<g>
</g>
<g>
</g>
</svg>
