<?xml version="1.0" encoding="iso-8859-1"?>
<!-- Generator: Adobe Illustrator 19.0.0, SVG Export Plug-In . SVG Version: 6.00 Build 0)  -->
<svg version="1.1" id="Layer_1" xmlns="http://www.w3.org/2000/svg" xmlns:xlink="http://www.w3.org/1999/xlink" x="0px" y="0px"
	 viewBox="0 0 512 512" style="enable-background:new 0 0 512 512;" xml:space="preserve">
<g>
	<g>
		<path d="M398.582,0H113.418C59.813,0,16.202,43.611,16.202,97.215V512h38.886v-45.367h116.658V512h38.886v-45.367h90.734V512
			h38.886v-45.367h116.658V512h38.886V97.215C495.797,43.611,452.187,0,398.582,0z M301.367,97.215v330.532H55.089V97.215
			c0-32.163,26.166-58.329,58.329-58.329h207.446C308.628,55.146,301.367,75.347,301.367,97.215z M456.911,427.747H340.253V97.215
			c0-32.163,26.165-58.329,58.329-58.329s58.329,26.166,58.329,58.329V427.747z"/>
	</g>
</g>
<g>
	<g>
		<rect x="93.975" y="77.772" width="168.506" height="38.886"/>
	</g>
</g>
<g>
	<g>
		<path d="M93.975,194.43v155.544h168.506V194.43H93.975z M196.099,233.316l-17.871,17.871l-17.871-17.871H196.099z
			 M223.595,311.089h-90.734v-50.276l45.367,45.367l45.367-45.367V311.089z"/>
	</g>
</g>
<g>
</g>
<g>
</g>
<g>
</g>
<g>
</g>
<g>
</g>
<g>
</g>
<g>
</g>
<g>
</g>
<g>
</g>
<g>
</g>
<g>
</g>
<g>
</g>
<g>
</g>
<g>
</g>
<g>
</g>
</svg>
