<?xml version="1.0" encoding="iso-8859-1"?>
<!-- Generator: Adobe Illustrator 19.0.0, SVG Export Plug-In . SVG Version: 6.00 Build 0)  -->
<svg version="1.1" id="Layer_1" xmlns="http://www.w3.org/2000/svg" xmlns:xlink="http://www.w3.org/1999/xlink" x="0px" y="0px"
	 viewBox="0 0 512 512" style="enable-background:new 0 0 512 512;" xml:space="preserve">
<g>
	<g>
		<path d="M408.216,0c-45.854,0-83.027,37.173-83.027,83.027v373.622V512h41.513v-55.351h83.027V512h41.513v-55.351V83.027
			C491.243,37.173,454.071,0,408.216,0z"/>
	</g>
</g>
<g>
	<g>
		<polygon points="152.216,326.868 103.784,278.435 103.784,332.108 200.649,332.108 200.649,278.435 		"/>
	</g>
</g>
<g>
	<g>
		<polygon points="133.138,249.081 152.216,268.159 171.294,249.081 		"/>
	</g>
</g>
<g>
	<g>
		<path d="M103.784,0C57.929,0,20.757,37.173,20.757,83.027v373.622V512H62.27v-55.351h83.027V512h41.513v-55.351h96.865V83.027
			c0-31.87,12.038-60.976,31.799-83.027H103.784z M242.162,373.622H62.27V207.568h179.892V373.622z M242.162,124.541H62.27V83.027
			h179.892V124.541z"/>
	</g>
</g>
<g>
</g>
<g>
</g>
<g>
</g>
<g>
</g>
<g>
</g>
<g>
</g>
<g>
</g>
<g>
</g>
<g>
</g>
<g>
</g>
<g>
</g>
<g>
</g>
<g>
</g>
<g>
</g>
<g>
</g>
</svg>
