<?xml version="1.0" encoding="iso-8859-1"?>
<!-- Generator: Adobe Illustrator 16.0.0, SVG Export Plug-In . SVG Version: 6.00 Build 0)  -->
<!DOCTYPE svg PUBLIC "-//W3C//DTD SVG 1.1//EN" "http://www.w3.org/Graphics/SVG/1.1/DTD/svg11.dtd">
<svg version="1.1" id="Capa_1" xmlns="http://www.w3.org/2000/svg" xmlns:xlink="http://www.w3.org/1999/xlink" x="0px" y="0px"
	 width="97.54px" height="97.54px" viewBox="0 0 97.54 97.54" style="enable-background:new 0 0 97.54 97.54;" xml:space="preserve"
	>
<g>
	<path d="M78.265,29.777h-3.145l2.012-4.026c0.989-2.007-2.066-4.962,0.523-10.172l3.721-7.905c0.849-1.708,0.157-3.781-1.554-4.63
		c-1.704-0.851-3.778-0.154-4.627,1.554c0,0-1.116,1.783-4.079,7.722c-2.957,5.938-6.797,4.543-7.803,6.55l-5.435,10.908h-2.375
		l0.976-7.396c0.294-2.221-3.569-4.02-2.807-9.794l0.948-8.684c0.246-1.889-1.081-3.625-2.971-3.873
		c-1.889-0.248-3.627,1.08-3.879,2.973c0,0-0.474,2.05-1.343,8.627c-0.87,6.577-4.962,6.504-5.257,8.73l-1.244,9.417h-1.825
		l-1.157-3.451c-0.71-2.127-4.969-2.046-6.815-7.568l-2.965-8.215c-0.602-1.812-2.558-2.782-4.372-2.18
		c-1.809,0.607-2.781,2.562-2.177,4.374c0,0,0.479,2.053,2.579,8.343c1.629,4.865-0.214,6.999-0.802,8.697h-3.116
		c-4.113,0-7.446,3.337-7.446,7.447v52.87c0,4.109,3.333,7.446,7.446,7.446h58.985c4.113,0,7.446-3.333,7.446-7.446v-52.87
		C85.712,33.11,82.382,29.777,78.265,29.777z M52.781,55.995c-1.249-2.194-5.318-9.285-6.239-10.914c0,0-0.367-0.375,0.295-0.76
		c0.676-0.383,7.187-1.627,7.669-1.896c0.472-0.28,0.671,0.094,0.671,0.094c0.903,1.581,3.977,6.935,5.188,9.06
		c0.397,0.682,0.65,1.14,0.65,1.14s1.643-0.948,2.683-1.54c1.034-0.585,0.691,0.63,0.691,0.63s-2.3,9.045-2.56,10.01
		c-0.185,0.691-0.89,0.441-0.89,0.441l-9.979-2.56c0,0-1.204-0.295-0.355-0.78c0.849-0.489,2.909-1.663,2.909-1.663
		S53.225,56.761,52.781,55.995z M60.186,66.285l5.441-2.519c0.787-0.394,1.013,0.462,1.013,0.462l2.683,6.358
		c0,0.342-0.28,0.633-0.636,0.633H62.64c-0.359,0-1.034-0.314-1.298-0.633l-1.652-3.378C59.388,66.689,59.717,66.49,60.186,66.285z
		 M44.401,79.823c0.027,0.876-0.849,0.712-0.849,0.712l-6.894-0.277c-0.322-0.154-0.452-0.527-0.301-0.849l2.581-5.472
		c0.15-0.315,0.719-0.784,1.127-0.904l3.749-0.051c0.604-0.059,0.645,0.339,0.631,0.838L44.401,79.823z M44.021,67.982
		c-0.89-0.414-3.023-1.434-3.023-1.434s-0.253,0.527-0.625,1.314c-1.09,2.293-4.572,9.691-5.371,11.382c0,0-0.087,0.513-0.796,0.182
		c-0.698-0.329-5.45-4.966-5.939-5.195c-0.501-0.232-0.31-0.612-0.31-0.612c0.775-1.649,3.41-7.228,4.454-9.438
		c0.344-0.712,0.555-1.185,0.555-1.185s-1.718-0.811-2.799-1.317c-1.07-0.51,0.122-0.931,0.122-0.931s8.74-3.292,9.672-3.627
		c0.676-0.24,0.883,0.482,0.883,0.482l3.605,9.637C44.453,67.24,44.904,68.396,44.021,67.982z M45.572,55.929l-4.889-3.477
		c-0.732-0.486-0.096-1.105-0.096-1.105l4.173-5.484c0.31-0.173,0.691-0.066,0.869,0.231l2.997,5.253
		c0.18,0.305,0.246,1.037,0.103,1.444l-2.11,3.107C46.318,56.418,45.98,56.238,45.572,55.929z M67.465,80.747
		c0,0.548-0.429,0.537-0.429,0.537c-1.816,0-7.994,0-10.434,0c-0.797,0-1.314,0-1.314,0s0,1.899,0,3.091
		c0,1.194-0.893,0.287-0.893,0.287s-6.704-6.492-7.409-7.196c-0.509-0.507,0.063-1.003,0.063-1.003l7.182-7.371
		c0,0,0.848-0.904,0.848,0.075c0,0.981,0,3.347,0,3.347s0.582,0,1.465,0c2.526,0,10.705,0,12.573,0c0,0,0.507-0.134,0.507,0.644
		C69.621,73.923,67.465,80.189,67.465,80.747z"/>
</g>
<g>
</g>
<g>
</g>
<g>
</g>
<g>
</g>
<g>
</g>
<g>
</g>
<g>
</g>
<g>
</g>
<g>
</g>
<g>
</g>
<g>
</g>
<g>
</g>
<g>
</g>
<g>
</g>
<g>
</g>
</svg>
